<?xml version="1.0" standalone="no"?>
<!DOCTYPE svg PUBLIC "-//W3C//DTD SVG 20010904//EN"
 "http://www.w3.org/TR/2001/REC-SVG-20010904/DTD/svg10.dtd">
<svg version="1.0" xmlns="http://www.w3.org/2000/svg"
 width="1100.000000pt" height="1100.000000pt" viewBox="0 0 1100.000000 1100.000000"
 preserveAspectRatio="xMidYMid meet">
<metadata>
Created by potrace 1.11, written by Peter Selinger 2001-2013
</metadata>
<g transform="translate(0.000000,1100.000000) scale(0.100000,-0.100000)"
fill="#000000" stroke="none">
<path d="M5289 8516 c-2 -2 -36 -6 -74 -10 -39 -4 -81 -8 -95 -11 -14 -2 -56
-8 -95 -14 -88 -14 -126 -20 -147 -27 -9 -3 -25 -6 -35 -8 -25 -5 -102 -25
-138 -37 -157 -49 -256 -83 -340 -118 -71 -30 -255 -123 -335 -169 -220 -129
-392 -263 -585 -457 -143 -142 -172 -174 -235 -255 -19 -25 -43 -54 -52 -64
-15 -16 -100 -145 -184 -276 -30 -48 -130 -240 -138 -267 -7 -23 -6 -23 72
-23 l79 0 32 63 c51 102 87 163 176 296 270 405 658 744 1085 948 123 59 323
140 395 160 133 37 274 72 310 78 23 3 50 7 62 9 12 3 43 8 70 12 26 3 55 8
64 9 45 8 238 18 349 18 155 -1 270 -11 450 -39 89 -15 118 -21 215 -46 22 -5
49 -12 60 -14 12 -2 71 -20 131 -40 101 -33 155 -53 244 -91 59 -25 249 -122
290 -148 22 -14 42 -25 45 -25 11 0 203 -135 295 -209 125 -99 313 -283 404
-396 80 -99 194 -253 220 -300 9 -17 30 -52 47 -80 16 -27 47 -85 69 -127 l40
-78 80 0 80 0 -15 38 c-56 134 -204 379 -323 537 -314 414 -771 766 -1234 948
-197 79 -450 153 -583 172 -23 3 -50 7 -61 9 -12 2 -45 8 -75 11 -30 4 -65 10
-79 13 -30 5 -535 13 -541 8z"/>
<path d="M5302 8189 c-51 -4 -123 -12 -160 -19 -37 -6 -80 -13 -97 -16 -83
-13 -264 -62 -380 -101 -138 -47 -395 -166 -492 -228 -99 -64 -216 -144 -252
-173 -235 -188 -395 -356 -567 -599 -50 -70 -139 -221 -148 -251 -7 -21 -4
-22 44 -22 49 0 51 1 78 46 248 419 562 726 980 959 356 199 749 302 1172 310
233 4 350 -8 605 -59 241 -49 579 -191 810 -340 188 -122 424 -327 554 -481
68 -82 186 -245 241 -336 l57 -94 52 -3 c35 -2 51 1 51 9 0 20 -137 242 -208
337 -295 396 -672 688 -1135 880 -171 72 -415 136 -637 167 -127 18 -424 25
-568 14z"/>
<path d="M5460 7662 l-45 -87 -92 -14 c-51 -7 -93 -17 -93 -20 0 -4 30 -37 66
-73 l66 -65 -16 -93 c-9 -51 -15 -95 -12 -97 2 -2 40 14 84 36 43 23 85 41 92
41 7 0 46 -18 86 -41 70 -38 99 -44 89 -16 -3 7 -11 47 -18 89 l-13 77 67 67
c38 37 66 71 63 75 -2 4 -45 13 -95 20 l-91 13 -44 88 c-24 48 -45 88 -47 88
-1 0 -22 -39 -47 -88z"/>
<path d="M4498 7276 l-42 -85 -70 -11 c-39 -6 -84 -14 -100 -17 l-28 -5 72
-70 72 -69 -16 -92 c-8 -50 -13 -93 -10 -96 3 -3 43 14 89 37 l85 44 76 -41
c100 -53 104 -53 92 7 -5 26 -11 63 -14 82 -3 19 -7 40 -9 47 -2 6 28 42 67
78 50 48 67 69 58 75 -12 8 -137 24 -142 19 -2 -1 -13 3 -25 9 -12 7 -37 45
-57 86 -19 41 -39 77 -45 80 -6 4 -28 -28 -53 -78z"/>
<path d="M6418 7276 l-42 -85 -70 -11 c-39 -6 -84 -14 -100 -17 l-28 -5 72
-70 72 -69 -16 -92 c-8 -50 -13 -93 -10 -96 3 -3 43 14 89 37 l84 43 78 -40
c44 -23 84 -41 90 -41 7 0 8 14 1 48 -5 26 -11 63 -14 82 -3 19 -7 40 -9 47
-2 6 28 42 67 78 50 48 67 69 58 75 -7 4 -42 11 -78 15 -98 10 -105 15 -145
99 -21 41 -41 78 -47 81 -5 3 -29 -32 -52 -79z"/>
<path d="M1915 6546 c-2 -6 -3 -414 -2 -906 l2 -895 3603 -1 3602 -1 5 21 c2
11 4 419 2 906 l-2 885 -3603 1 c-2582 0 -3605 -2 -3607 -10z"/>
<path d="M297 5613 c-4 -3 46 -61 111 -127 121 -124 336 -345 548 -565 l120
-123 -40 -42 c-75 -77 -339 -349 -529 -545 -108 -111 -185 -197 -180 -202 5
-5 547 -8 1244 -7 l1234 3 0 275 0 275 -537 3 -538 2 -2 528 -3 527 -711 3
c-391 1 -714 -1 -717 -5z"/>
<path d="M9317 5613 c-4 -3 -7 -242 -7 -530 l0 -523 -540 0 -540 0 2 -277 3
-278 1234 -3 c679 -1 1238 1 1243 6 8 8 -34 54 -397 429 -357 368 -346 356
-343 365 2 4 54 60 117 125 249 257 430 444 543 559 65 66 118 124 118 127 0
9 -1425 9 -1433 0z"/>
<path d="M6984 3448 c-234 -188 -524 -344 -809 -434 -277 -88 -492 -122 -785
-122 -411 0 -763 84 -1140 272 -106 53 -225 123 -269 157 -13 11 -29 19 -35
19 -10 0 -56 -59 -56 -72 0 -7 119 -87 190 -127 412 -234 853 -351 1325 -349
190 0 293 10 475 43 426 77 829 263 1178 544 l103 83 -38 29 c-21 16 -41 29
-44 29 -3 0 -46 -32 -95 -72z"/>
<path d="M7234 3263 c-58 -54 -278 -212 -377 -271 -433 -257 -875 -385 -1382
-399 -232 -6 -369 4 -580 42 -154 29 -409 101 -510 146 -11 4 -66 28 -122 53
-121 53 -274 137 -393 216 -47 31 -90 59 -96 63 -15 8 -100 -102 -88 -113 43
-40 272 -177 409 -246 353 -175 720 -278 1090 -303 120 -8 419 -7 485 3 19 3
60 8 90 11 30 4 64 9 75 11 11 1 41 5 68 8 133 15 484 116 637 183 226 99 479
243 625 355 140 109 215 173 215 185 0 8 -103 83 -113 83 -2 0 -17 -12 -33
-27z"/>
</g>
</svg>
